<?xml version="1.0" encoding="UTF-8" standalone="no"?>
<!DOCTYPE svg PUBLIC "-//W3C//DTD SVG 1.1//EN"
 "http://www.w3.org/Graphics/SVG/1.1/DTD/svg11.dtd">
<!-- Generated by graphviz version 2.43.0 (0)
 -->
<!-- Title: PR flow Pages: 1 -->
<svg width="1125pt" height="534pt"
 viewBox="0.00 0.00 1125.00 533.99" xmlns="http://www.w3.org/2000/svg" xmlns:xlink="http://www.w3.org/1999/xlink">
<g id="graph0" class="graph" transform="scale(1 1) rotate(0) translate(4 529.99)">
<title>PR flow</title>
<polygon fill="white" stroke="transparent" points="-4,4 -4,-529.99 1121,-529.99 1121,4 -4,4"/>
<!-- (unlabeled) -->
<g id="node1" class="node">
<title>(unlabeled)</title>
<polygon fill="none" stroke="black" points="878.5,-525.99 601.5,-525.99 601.5,-489.99 878.5,-489.99 878.5,-525.99"/>
<text text-anchor="middle" x="740" y="-504.29" font-family="Times-Roman" font-size="14.00">(unlabeled) Does not need a reviewer</text>
</g>
<!-- (needs_reviewer) -->
<g id="node2" class="node">
<title>(needs_reviewer)</title>
<polygon fill="none" stroke="blue" stroke-width="2" points="880,-438.99 600,-438.99 600,-402.99 880,-402.99 880,-438.99"/>
<text text-anchor="middle" x="740" y="-417.29" font-family="Times-Roman" font-size="14.00">(needs_reviewer) Needs new reviewer</text>
</g>
<!-- (unlabeled)&#45;&gt;(needs_reviewer) -->
<g id="edge9" class="edge">
<title>(unlabeled)&#45;&gt;(needs_reviewer)</title>
<path fill="none" stroke="black" d="M740,-489.79C740,-478.15 740,-462.54 740,-449.23"/>
<polygon fill="black" stroke="black" points="743.5,-449.17 740,-439.17 736.5,-449.17 743.5,-449.17"/>
<text text-anchor="middle" x="797.5" y="-460.79" font-family="Times-Roman" font-size="14.00">Marked as ready</text>
</g>
<!-- (awaiting_changes) -->
<g id="node3" class="node">
<title>(awaiting_changes)</title>
<polygon fill="none" stroke="black" points="859,-351.99 461,-351.99 461,-315.99 859,-315.99 859,-351.99"/>
<text text-anchor="middle" x="660" y="-330.29" font-family="Times-Roman" font-size="14.00">(awaiting_changes) In Review &amp; Last update by Author</text>
</g>
<!-- (needs_reviewer)&#45;&gt;(awaiting_changes) -->
<g id="edge1" class="edge">
<title>(needs_reviewer)&#45;&gt;(awaiting_changes)</title>
<path fill="none" stroke="green" d="M735.33,-402.78C731.86,-392.39 726.27,-379.39 718,-369.99 714.07,-365.52 709.43,-361.45 704.51,-357.8"/>
<polygon fill="green" stroke="green" points="706.28,-354.77 696.04,-352.04 702.34,-360.56 706.28,-354.77"/>
<text text-anchor="middle" x="790" y="-373.79" font-family="Times-Roman" font-size="14.00">Review requested</text>
</g>
<!-- (awaiting_reviewer) -->
<g id="node4" class="node">
<title>(awaiting_reviewer)</title>
<polygon fill="none" stroke="black" points="786,-63.5 372,-63.5 372,-27.5 786,-27.5 786,-63.5"/>
<text text-anchor="middle" x="579" y="-41.8" font-family="Times-Roman" font-size="14.00">(awaiting_reviewer) In Review &amp; Last update by Reviewer</text>
</g>
<!-- (needs_reviewer)&#45;&gt;(awaiting_reviewer) -->
<g id="edge3" class="edge">
<title>(needs_reviewer)&#45;&gt;(awaiting_reviewer)</title>
<path fill="none" stroke="black" d="M832.41,-402.96C895.61,-388.58 968,-365.46 968,-334.99 968,-334.99 968,-334.99 968,-158.99 968,-110.3 854.09,-81.36 749.55,-65.06"/>
<polygon fill="black" stroke="black" points="749.88,-61.57 739.47,-63.52 748.82,-68.49 749.88,-61.57"/>
<text text-anchor="middle" x="1042.5" y="-243.29" font-family="Times-Roman" font-size="14.00">Non&#45;author comment</text>
</g>
<!-- (awaiting_changes)&#45;&gt;(needs_reviewer) -->
<g id="edge10" class="edge">
<title>(awaiting_changes)&#45;&gt;(needs_reviewer)</title>
<path fill="none" stroke="green" d="M654.1,-352.09C651.65,-362.43 650.65,-375.43 657,-384.99 660.08,-389.63 663.91,-393.66 668.22,-397.16"/>
<polygon fill="green" stroke="green" points="666.24,-400.04 676.45,-402.89 670.24,-394.3 666.24,-400.04"/>
<text text-anchor="middle" x="685.5" y="-373.79" font-family="Times-Roman" font-size="14.00">Timeout</text>
</g>
<!-- (awaiting_changes)&#45;&gt;(awaiting_reviewer) -->
<g id="edge2" class="edge">
<title>(awaiting_changes)&#45;&gt;(awaiting_reviewer)</title>
<path fill="none" stroke="black" d="M695.7,-315.87C740.14,-292.01 807.29,-246.02 782,-195.99 750.65,-133.97 680.11,-91.38 631.04,-67.97"/>
<polygon fill="black" stroke="black" points="632.38,-64.74 621.84,-63.69 629.43,-71.08 632.38,-64.74"/>
<text text-anchor="middle" x="860.5" y="-199.79" font-family="Times-Roman" font-size="14.00">Non&#45;author comment</text>
</g>
<!-- (needs_merger) -->
<g id="node5" class="node">
<title>(needs_merger)</title>
<polygon fill="none" stroke="blue" stroke-width="2" points="546.5,-264.99 235.5,-264.99 235.5,-228.99 546.5,-228.99 546.5,-264.99"/>
<text text-anchor="middle" x="391" y="-243.29" font-family="Times-Roman" font-size="14.00">(needs_merger) Needs privileged reviewer</text>
</g>
<!-- (awaiting_changes)&#45;&gt;(needs_merger) -->
<g id="edge4" class="edge">
<title>(awaiting_changes)&#45;&gt;(needs_merger)</title>
<path fill="none" stroke="orange" d="M460.97,-318.1C436.97,-313.19 417.31,-306.66 407,-297.99 400.26,-292.32 396.32,-283.8 394.04,-275.39"/>
<polygon fill="orange" stroke="orange" points="397.43,-274.49 392,-265.39 390.57,-275.89 397.43,-274.49"/>
<text text-anchor="middle" x="486" y="-286.79" font-family="Times-Roman" font-size="14.00">Reviewer would merge</text>
</g>
<!-- (awaiting_reviewer)&#45;&gt;(awaiting_changes) -->
<g id="edge8" class="edge">
<title>(awaiting_reviewer)&#45;&gt;(awaiting_changes)</title>
<path fill="none" stroke="black" d="M575.2,-63.81C569.24,-94.35 559.97,-159.44 576,-210.99 587.75,-248.77 615.72,-285.21 636.17,-308.27"/>
<polygon fill="black" stroke="black" points="633.73,-310.8 643.05,-315.85 638.92,-306.09 633.73,-310.8"/>
<text text-anchor="middle" x="677" y="-199.79" font-family="Times-Roman" font-size="14.00">Commit or author comment &#160;</text>
</g>
<!-- (needs_merger)&#45;&gt;(awaiting_reviewer) -->
<g id="edge5" class="edge">
<title>(needs_merger)&#45;&gt;(awaiting_reviewer)</title>
<path fill="none" stroke="black" d="M409.79,-228.89C415.73,-223.3 422.25,-216.99 428,-210.99 456.13,-181.66 460.64,-172.04 488,-141.99 510.36,-117.43 536.59,-90.05 555.13,-70.93"/>
<polygon fill="black" stroke="black" points="557.86,-73.14 562.32,-63.53 552.84,-68.26 557.86,-73.14"/>
<text text-anchor="middle" x="526.5" y="-156.29" font-family="Times-Roman" font-size="14.00">Comment &#160;</text>
</g>
<!-- (awaiting_merger) -->
<g id="node6" class="node">
<title>(awaiting_merger)</title>
<polygon fill="none" stroke="black" points="438,-177.99 0,-177.99 0,-141.99 438,-141.99 438,-177.99"/>
<text text-anchor="middle" x="219" y="-156.29" font-family="Times-Roman" font-size="14.00">(awaiting_merger) In Review &amp; Privileged Reviewer Assigned</text>
</g>
<!-- (needs_merger)&#45;&gt;(awaiting_merger) -->
<g id="edge12" class="edge">
<title>(needs_merger)&#45;&gt;(awaiting_merger)</title>
<path fill="none" stroke="green" d="M261.49,-228.96C243.82,-224.26 229.5,-218.37 223,-210.99 217.57,-204.84 215.6,-196.44 215.27,-188.29"/>
<polygon fill="green" stroke="green" points="218.77,-188.38 215.6,-178.27 211.77,-188.15 218.77,-188.38"/>
<text text-anchor="middle" x="285" y="-199.79" font-family="Times-Roman" font-size="14.00">Review requested</text>
</g>
<!-- (awaiting_merger)&#45;&gt;(awaiting_reviewer) -->
<g id="edge6" class="edge">
<title>(awaiting_merger)&#45;&gt;(awaiting_reviewer)</title>
<path fill="none" stroke="black" d="M273.68,-141.91C338.36,-121.69 445.89,-88.09 514.56,-66.63"/>
<polygon fill="black" stroke="black" points="515.9,-69.88 524.4,-63.56 513.81,-63.2 515.9,-69.88"/>
<text text-anchor="middle" x="412" y="-112.79" font-family="Times-Roman" font-size="14.00">Comment</text>
</g>
<!-- (awaiting_merger)&#45;&gt;(needs_merger) -->
<g id="edge11" class="edge">
<title>(awaiting_merger)&#45;&gt;(needs_merger)</title>
<path fill="none" stroke="green" d="M313.41,-178.06C326.63,-182.68 339.58,-188.55 351,-195.99 360.6,-202.25 368.95,-211.57 375.51,-220.48"/>
<polygon fill="green" stroke="green" points="372.67,-222.52 381.22,-228.77 378.43,-218.55 372.67,-222.52"/>
<text text-anchor="middle" x="395.5" y="-199.79" font-family="Times-Roman" font-size="14.00">Timeout</text>
</g>
<!-- (merged) -->
<g id="node7" class="node">
<title>(merged)</title>
<ellipse fill="none" stroke="black" cx="219" cy="-45.5" rx="45.49" ry="45.49"/>
<text text-anchor="middle" x="219" y="-41.8" font-family="Times-Roman" font-size="14.00">merged</text>
</g>
<!-- (awaiting_merger)&#45;&gt;(merged) -->
<g id="edge7" class="edge">
<title>(awaiting_merger)&#45;&gt;(merged)</title>
<path fill="none" stroke="black" d="M219,-141.91C219,-130.92 219,-115.97 219,-101.18"/>
<polygon fill="black" stroke="black" points="222.5,-101 219,-91 215.5,-101 222.5,-101"/>
<text text-anchor="middle" x="244.5" y="-112.79" font-family="Times-Roman" font-size="14.00">Merges</text>
</g>
</g>
</svg>
